<?xml version="1.0" standalone="no"?>
<!DOCTYPE svg PUBLIC "-//W3C//DTD SVG 20010904//EN"
 "http://www.w3.org/TR/2001/REC-SVG-20010904/DTD/svg10.dtd">
<svg version="1.0" xmlns="http://www.w3.org/2000/svg"
 width="557.000000pt" height="557.000000pt" viewBox="0 0 557.000000 557.000000"
 preserveAspectRatio="xMidYMid meet">
<metadata>
Created by potrace 1.11, written by Peter Selinger 2001-2013
</metadata>
<g transform="translate(0.000000,557.000000) scale(0.100000,-0.100000)"
fill="#000000" stroke="none">
<path d="M2619 5446 c-2 -2 -42 -6 -89 -10 -278 -19 -612 -111 -890 -243 -94
-45 -267 -141 -314 -176 -6 -4 -56 -39 -111 -78 -55 -40 -102 -74 -105 -78 -3
-3 -34 -31 -70 -61 -170 -143 -356 -356 -491 -563 -65 -99 -225 -402 -233
-440 -2 -7 -9 -25 -16 -42 -32 -77 -101 -304 -116 -380 -2 -11 -6 -31 -9 -45
-13 -61 -16 -81 -32 -190 -18 -127 -23 -465 -10 -613 20 -225 110 -589 187
-752 79 -170 126 -264 165 -329 273 -461 668 -824 1150 -1056 184 -89 453
-179 615 -206 14 -2 45 -9 70 -14 25 -5 68 -12 95 -15 28 -3 66 -8 85 -11 60
-9 441 -12 515 -4 193 22 215 26 355 57 118 26 377 108 394 124 6 5 16 9 24 9
19 0 227 101 317 153 548 322 965 818 1177 1402 25 69 73 228 83 275 2 8 8 35
14 60 13 57 19 94 27 150 3 25 8 54 10 65 19 99 26 501 10 635 -83 727 -434
1359 -1012 1818 -65 52 -214 153 -294 199 -83 48 -313 163 -326 163 -3 0 -20
6 -37 14 -89 41 -365 120 -492 142 -16 2 -37 7 -45 9 -8 2 -43 7 -78 10 -35 4
-73 9 -85 11 -26 6 -432 15 -438 10z"/>
</g>
</svg>
